<svg width="15" height="21" viewBox="0 0 15 21" fill="none" xmlns="http://www.w3.org/2000/svg">
<path id="outline" fill-rule="evenodd" clip-rule="evenodd" d="M13.6792 14.0949C13.6792 16.3653 11.4119 18.6371 8.03783 18.6371C4.66372 18.6371 2.39648 16.3653 2.39648 14.0949C2.39648 11.7398 3.92819 8.80699 5.72852 6.2538C6.54223 5.09981 7.35889 4.0946 7.99751 3.35203C8.64829 4.15263 9.49272 5.24244 10.3341 6.47237C11.2113 7.75475 12.0646 9.1595 12.6933 10.5267C13.3335 11.9189 13.6792 13.1413 13.6792 14.0949ZM0.784668 14.0949C0.784668 9.7133 4.91996 4.42976 6.94564 2.10445C7.60272 1.35018 8.03783 0.907166 8.03783 0.907166C8.03783 0.907166 8.45467 1.36796 9.0885 2.13984C11.0986 4.58774 15.291 10.1644 15.291 14.0949C15.291 17.4937 12.0436 20.2489 8.03783 20.2489C4.03202 20.2489 0.784668 17.4937 0.784668 14.0949ZM4.40991 11.384H6.14388C5.81763 12.1286 5.62011 12.8347 5.62011 13.4354C5.62011 14.3578 6.52243 15.4135 8.03783 15.4135V17.0253C5.81238 17.0253 4.0083 15.4181 4.0083 13.4354C4.0083 12.7738 4.16222 12.077 4.40991 11.384Z" fill="white"/>
</svg>
