<svg width="36" height="36" viewBox="0 0 36 36" fill="none" xmlns="http://www.w3.org/2000/svg">
<path id="outline" fill-rule="evenodd" clip-rule="evenodd" d="M12.4147 8.06993C12.8572 8.02369 13.3061 8 13.7604 8C19.8362 8 24.9576 12.2372 26.5263 18.0173C26.6518 18.0092 26.7781 18.0039 26.9051 18.0015C26.8535 18.0006 26.8018 18.0001 26.75 18.0001L26.7081 18.0002L26.708 18H28.625H28.7002V17.9994C31.0818 17.9592 33 16.0161 33 13.625C33 11.2088 31.0412 9.25 28.625 9.25C27.8137 9.25 27.054 9.47082 26.4027 9.85563C26.4008 9.15721 26.2947 8.48329 26.0992 7.84856C25.1252 5.02683 22.4459 3 19.2931 3C16.0586 3 13.3223 5.13345 12.4147 8.06993ZM31.9708 19.6323C34.1077 21.2198 35.5 23.8163 35.5 26.75C35.5 31.5825 31.722 35.5 27.0616 35.5C26.9573 35.5 26.8534 35.498 26.75 35.4941V35.5H13.9589V35.4985C13.8928 35.4995 13.8267 35.5 13.7604 35.5C6.43686 35.5 0.5 29.3439 0.5 21.75C0.5 15.6179 4.37117 10.4234 9.71765 8.65071C10.4586 4.03008 14.4636 0.5 19.2931 0.5C23.4367 0.5 26.9734 3.09855 28.3624 6.75492C28.4495 6.75165 28.537 6.75 28.625 6.75C32.4219 6.75 35.5 9.82804 35.5 13.625C35.5 16.2074 34.0762 18.4572 31.9708 19.6323ZM26.75 33H13.9589H13.815V32.9999L13.7604 33C7.90224 33 3 28.0494 3 21.75C3 15.4506 7.90224 10.5 13.7604 10.5C18.7298 10.5 23.0114 14.0626 24.1961 18.9889L24.1998 18.9874C24.3671 19.6709 24.4738 20.3796 24.5135 21.1068C25.2924 20.7165 26.159 20.5 27.0616 20.5C30.2566 20.5 33 23.212 33 26.75C33 30.2632 30.2949 32.9619 27.1287 32.9996V33H26.75Z" fill="white"/>
</svg>
