<?xml version="1.0" encoding="utf-8"?>

<!-- Uploaded to: SVG Repo, www.svgrepo.com, Generator: SVG Repo Mixer Tools -->
<svg fill="#000000" height="800px" width="800px" version="1.1" id="Icons" xmlns="http://www.w3.org/2000/svg" xmlns:xlink="http://www.w3.org/1999/xlink" 
	 viewBox="0 0 32 32" xml:space="preserve">
<g>
	<path d="M19,2c-4.4,0-8.2,2.8-9.5,7C5.9,9,3,11.9,3,15.5c0,2.4,1.3,4.6,3.4,5.7c0.9,0.5,2,0.8,3.1,0.8H19c5.5,0,10-4.5,10-10
		S24.5,2,19,2z"/>
	<path d="M12,24c0-0.6-0.4-1-1-1s-1,0.4-1,1c-0.6,0-1,0.4-1,1s0.4,1,1,1c0,0.6,0.4,1,1,1s1-0.4,1-1c0.6,0,1-0.4,1-1S12.6,24,12,24z"
		/>
	<path d="M17,27c0-0.6-0.4-1-1-1s-1,0.4-1,1c-0.6,0-1,0.4-1,1s0.4,1,1,1c0,0.6,0.4,1,1,1s1-0.4,1-1c0.6,0,1-0.4,1-1S17.6,27,17,27z"
		/>
	<path d="M22,24c0-0.6-0.4-1-1-1s-1,0.4-1,1c-0.6,0-1,0.4-1,1s0.4,1,1,1c0,0.6,0.4,1,1,1s1-0.4,1-1c0.6,0,1-0.4,1-1S22.6,24,22,24z"
		/>
</g>
</svg>