<svg width="11" height="21" viewBox="0 0 11 21" fill="none" xmlns="http://www.w3.org/2000/svg">
<path id="Vector" d="M6.57508 13.6007V9.04811C6.57508 8.79551 6.47626 8.55325 6.30036 8.37464C6.12447 8.19602 5.8859 8.09568 5.63714 8.09568C5.38838 8.09568 5.14981 8.19602 4.97391 8.37464C4.79801 8.55325 4.69919 8.79551 4.69919 9.04811V13.6007C4.41568 13.7669 4.17993 14.0056 4.01538 14.293C3.85084 14.5804 3.76322 14.9065 3.76125 15.2389C3.76125 15.7441 3.95889 16.2286 4.31068 16.5859C4.66248 16.9431 5.13962 17.1438 5.63714 17.1438C6.13465 17.1438 6.61179 16.9431 6.96359 16.5859C7.31539 16.2286 7.51303 15.7441 7.51303 15.2389C7.51105 14.9065 7.42344 14.5804 7.25889 14.293C7.09435 14.0056 6.8586 13.7669 6.57508 13.6007ZM9.85789 11.4292V4.28595C9.85789 3.14924 9.4132 2.0591 8.62166 1.25532C7.83011 0.451554 6.75655 0 5.63714 0C4.51772 0 3.44416 0.451554 2.65262 1.25532C1.86107 2.0591 1.41639 3.14924 1.41639 4.28595V11.4292C0.768121 12.1751 0.322865 13.08 0.124663 14.0543C-0.0735396 15.0286 -0.0178199 16.0386 0.28631 16.9843C0.59044 17.93 1.13244 18.7788 1.8587 19.4465C2.58496 20.1143 3.47032 20.5779 4.42719 20.7916C4.82468 20.8836 5.22975 20.9378 5.63714 20.9535C6.72574 20.9587 7.79244 20.6431 8.70798 20.045C9.62352 19.447 10.3486 18.5921 10.7953 17.5841C11.242 16.576 11.3913 15.458 11.2249 14.3656C11.0585 13.2731 10.5836 12.2531 9.85789 11.4292ZM7.982 18.1629C7.23572 18.8348 6.25716 19.1782 5.26157 19.1174C4.26598 19.0567 3.33493 18.5969 2.67323 17.8391C2.01154 17.0813 1.6734 16.0876 1.7332 15.0766C1.79301 14.0656 2.24586 13.1202 2.99213 12.4483C3.08076 12.3601 3.15126 12.2549 3.19956 12.1388C3.24787 12.0227 3.273 11.8981 3.27352 11.7721V4.28595C3.27352 3.65444 3.52056 3.04881 3.96031 2.60227C4.40006 2.15573 4.99648 1.90487 5.61838 1.90487C6.24027 1.90487 6.8367 2.15573 7.27644 2.60227C7.71619 3.04881 7.96324 3.65444 7.96324 4.28595V11.8483C7.96375 11.9743 7.98889 12.0989 8.03719 12.215C8.08549 12.3311 8.156 12.4363 8.24462 12.5245C8.62801 12.9006 8.92807 13.3553 9.12481 13.8584C9.32155 14.3615 9.41046 14.9014 9.38561 15.4421C9.36076 15.9828 9.22273 16.5119 8.9807 16.9942C8.73867 17.4765 8.39821 17.9009 7.982 18.2391V18.1629Z" fill="#DFA1A1"/>
</svg>
