<svg width="11" height="22" viewBox="0 0 11 22" fill="none" xmlns="http://www.w3.org/2000/svg">
<path id="Vector" d="M6.57508 14.5543V10.0017C6.57508 9.74909 6.47626 9.50684 6.30036 9.32822C6.12447 9.1496 5.8859 9.04926 5.63714 9.04926C5.38838 9.04926 5.14981 9.1496 4.97391 9.32822C4.79801 9.50684 4.69919 9.74909 4.69919 10.0017V14.5543C4.41568 14.7205 4.17993 14.9592 4.01538 15.2466C3.85084 15.534 3.76322 15.8601 3.76125 16.1925C3.76125 16.6977 3.95889 17.1822 4.31068 17.5394C4.66248 17.8967 5.13962 18.0974 5.63714 18.0974C6.13465 18.0974 6.61179 17.8967 6.96359 17.5394C7.31539 17.1822 7.51303 16.6977 7.51303 16.1925C7.51105 15.8601 7.42344 15.534 7.25889 15.2466C7.09435 14.9592 6.8586 14.7205 6.57508 14.5543ZM9.85789 12.3828V5.23953C9.85789 4.10283 9.4132 3.01268 8.62166 2.20891C7.83011 1.40514 6.75655 0.953583 5.63714 0.953583C4.51772 0.953583 3.44416 1.40514 2.65262 2.20891C1.86107 3.01268 1.41639 4.10283 1.41639 5.23953V12.3828C0.768121 13.1287 0.322865 14.0336 0.124663 15.0079C-0.0735396 15.9822 -0.0178199 16.9922 0.28631 17.9379C0.59044 18.8836 1.13244 19.7323 1.8587 20.4001C2.58496 21.0678 3.47032 21.5315 4.42719 21.7452C4.82468 21.8372 5.22975 21.8914 5.63714 21.9071C6.72574 21.9122 7.79244 21.5967 8.70798 20.9986C9.62352 20.4006 10.3486 19.5457 10.7953 18.5376C11.242 17.5296 11.3913 16.4116 11.2249 15.3191C11.0585 14.2267 10.5836 13.2067 9.85789 12.3828ZM7.982 19.1165C7.23572 19.7884 6.25716 20.1318 5.26157 20.071C4.26598 20.0103 3.33493 19.5504 2.67323 18.7926C2.01154 18.0348 1.6734 17.0412 1.7332 16.0302C1.79301 15.0192 2.24586 14.0738 2.99213 13.4019C3.08076 13.3137 3.15126 13.2085 3.19956 13.0924C3.24787 12.9763 3.273 12.8517 3.27352 12.7256V5.23953C3.27352 4.60803 3.52056 4.00239 3.96031 3.55585C4.40006 3.10931 4.99648 2.85845 5.61838 2.85845C6.24027 2.85845 6.8367 3.10931 7.27644 3.55585C7.71619 4.00239 7.96324 4.60803 7.96324 5.23953V12.8018C7.96375 12.9279 7.98889 13.0525 8.03719 13.1686C8.08549 13.2847 8.156 13.3899 8.24462 13.4781C8.62801 13.8542 8.92807 14.3089 9.12481 14.812C9.32155 15.3151 9.41046 15.8549 9.38561 16.3957C9.36076 16.9364 9.22273 17.4655 8.9807 17.9478C8.73867 18.4301 8.39821 18.8545 7.982 19.1927V19.1165Z" fill="#6D97CA"/>
</svg>
