<svg width="20" height="17" viewBox="0 0 20 17" fill="none" xmlns="http://www.w3.org/2000/svg">
<path id="outline" fill-rule="evenodd" clip-rule="evenodd" d="M9.0084 3.92365L9.0084 3.9189L4.44636 3.91885L8.8224 2.33759L8.82193 2.33629C8.90573 2.31516 8.99246 2.30764 9.07877 2.31408C9.09015 2.31493 9.10153 2.31602 9.1129 2.31736L9.11307 2.31738C9.23158 2.33134 9.34551 2.37145 9.44664 2.43483L9.44665 2.43484C9.54777 2.49822 9.63355 2.58328 9.6978 2.68387L9.6979 2.68403C9.76212 2.78462 9.8032 2.89823 9.81817 3.01664L9.8182 3.01687C9.83315 3.13533 9.8216 3.25563 9.78438 3.36907L9.78435 3.36916C9.74711 3.48264 9.68512 3.58641 9.60287 3.67298L9.60279 3.67306C9.52056 3.7596 9.42013 3.82677 9.30876 3.86973L9.30854 3.86982C9.29807 3.87385 9.28753 3.87767 9.27692 3.88125C9.19042 3.91051 9.09962 3.92483 9.0084 3.92365ZM0.949219 3.46848V5.53075L8.99182 5.53085C9.29726 5.53428 9.60107 5.47964 9.88694 5.36936L9.88715 5.36928C10.1048 5.28531 10.3084 5.17046 10.4921 5.02878C10.5899 4.95334 10.682 4.87028 10.7676 4.78023L10.7677 4.78015C11.0139 4.52097 11.1995 4.2103 11.311 3.87059L11.311 3.8705C11.4225 3.5308 11.4571 3.17056 11.4124 2.81584L11.4124 2.81561C11.3676 2.46087 11.2446 2.12052 11.0523 1.81916L11.0522 1.81899C10.8597 1.51759 10.6028 1.26273 10.2998 1.07285L10.2998 1.07284C10.1945 1.00686 10.0846 0.94929 9.97111 0.900509C9.75797 0.808916 9.53213 0.748294 9.30045 0.721056L9.30028 0.721036C8.95512 0.680482 8.60539 0.715016 8.27501 0.822131L8.27476 0.821444L8.25003 0.83038L8.24712 0.831362L8.24678 0.831475L8.2468 0.831547L0.949219 3.46848ZM0.949219 10.3739V12.0296L11.5919 15.8158L11.5918 15.8161C11.9769 15.9698 12.3912 16.0366 12.8051 16.0118C12.9643 16.0023 13.1219 15.9793 13.2763 15.9433C13.5234 15.8857 13.7624 15.7948 13.9865 15.6725C14.3505 15.4739 14.6663 15.1974 14.9112 14.8627C15.1562 14.5281 15.3244 14.1435 15.4037 13.7364C15.4831 13.3292 15.4717 12.9096 15.3704 12.5074C15.2691 12.1052 15.0803 11.7303 14.8175 11.4094C14.6558 11.2119 14.4684 11.0378 14.261 10.8915C14.1315 10.8002 13.9941 10.7196 13.8502 10.651C13.4765 10.4727 13.0681 10.3789 12.6541 10.3763V10.3739L0.949219 10.3739ZM12.6432 11.9859L5.63565 11.9858L12.2192 14.328L12.2186 14.3297C12.3751 14.3874 12.5419 14.4121 12.7087 14.4021C12.8859 14.3915 13.0586 14.3419 13.2145 14.2568C13.3704 14.1718 13.5056 14.0534 13.6105 13.9101C13.7154 13.7667 13.7874 13.602 13.8214 13.4277C13.8554 13.2534 13.8505 13.0737 13.8072 12.9014C13.7638 12.7292 13.6829 12.5687 13.5704 12.4313C13.4579 12.2938 13.3164 12.183 13.1562 12.1065C12.9961 12.0301 12.8212 11.99 12.6439 11.9889L12.6432 11.9889L12.6432 11.9886L12.6432 11.9859ZM16.276 4.12815L16.2753 4.12855L15.4826 2.7251L15.4817 2.72348L15.4833 2.72258C15.9125 2.48038 16.3914 2.3398 16.8834 2.31168C16.9548 2.3076 17.0261 2.3059 17.0974 2.30656C17.5179 2.31048 17.9343 2.39668 18.3229 2.56105C18.7773 2.75327 19.1816 3.04726 19.5045 3.42038C19.8274 3.7935 20.0604 4.23579 20.1856 4.71318C20.3107 5.19057 20.3246 5.69032 20.2263 6.17394C20.1279 6.65756 19.9198 7.11214 19.6182 7.50266C19.3602 7.83657 19.0397 8.11603 18.6753 8.32582C18.6135 8.36139 18.5504 8.39496 18.4862 8.42645C18.0432 8.64367 17.5562 8.75627 17.0629 8.75558V8.75535H0.949219V7.14353H17.0651L17.0651 7.14179C17.3116 7.14214 17.5548 7.08589 17.7761 6.97738C17.9974 6.86887 18.1909 6.71099 18.3416 6.51591C18.4923 6.32083 18.5962 6.09376 18.6453 5.85217C18.6945 5.61059 18.6875 5.36094 18.625 5.12247C18.5625 4.884 18.4461 4.66306 18.2848 4.47667C18.1235 4.29029 17.9215 4.14343 17.6945 4.04741C17.4675 3.95139 17.2215 3.90877 16.9755 3.92284C16.7297 3.93689 16.4904 4.00713 16.276 4.12815Z" fill="white"/>
</svg>
